<?xml version="1.0" standalone="no"?>
<svg xmlns:xlink="http://www.w3.org/1999/xlink" id="wave" style="transform:rotate(180deg); transition: 0.3s" viewBox="0 0 1440 100" version="1.1" xmlns="http://www.w3.org/2000/svg"><defs><linearGradient id="sw-gradient-0" x1="0" x2="0" y1="1" y2="0"><stop stop-color="rgba(255, 249, 234, 1)" offset="0%"/><stop stop-color="rgba(255, 249, 234, 1)" offset="100%"/></linearGradient></defs><path style="transform:translate(0, 0px); opacity:1" fill="url(#sw-gradient-0)" d="M0,40L34.3,38.3C68.6,37,137,33,206,28.3C274.3,23,343,17,411,25C480,33,549,57,617,58.3C685.7,60,754,40,823,26.7C891.4,13,960,7,1029,16.7C1097.1,27,1166,53,1234,61.7C1302.9,70,1371,60,1440,48.3C1508.6,37,1577,23,1646,21.7C1714.3,20,1783,30,1851,28.3C1920,27,1989,13,2057,21.7C2125.7,30,2194,60,2263,73.3C2331.4,87,2400,83,2469,81.7C2537.1,80,2606,80,2674,68.3C2742.9,57,2811,33,2880,26.7C2948.6,20,3017,30,3086,30C3154.3,30,3223,20,3291,13.3C3360,7,3429,3,3497,13.3C3565.7,23,3634,47,3703,53.3C3771.4,60,3840,50,3909,40C3977.1,30,4046,20,4114,15C4182.9,10,4251,10,4320,16.7C4388.6,23,4457,37,4526,48.3C4594.3,60,4663,70,4731,61.7C4800,53,4869,27,4903,13.3L4937.1,0L4937.1,100L4902.9,100C4868.6,100,4800,100,4731,100C4662.9,100,4594,100,4526,100C4457.1,100,4389,100,4320,100C4251.4,100,4183,100,4114,100C4045.7,100,3977,100,3909,100C3840,100,3771,100,3703,100C3634.3,100,3566,100,3497,100C3428.6,100,3360,100,3291,100C3222.9,100,3154,100,3086,100C3017.1,100,2949,100,2880,100C2811.4,100,2743,100,2674,100C2605.7,100,2537,100,2469,100C2400,100,2331,100,2263,100C2194.3,100,2126,100,2057,100C1988.6,100,1920,100,1851,100C1782.9,100,1714,100,1646,100C1577.1,100,1509,100,1440,100C1371.4,100,1303,100,1234,100C1165.7,100,1097,100,1029,100C960,100,891,100,823,100C754.3,100,686,100,617,100C548.6,100,480,100,411,100C342.9,100,274,100,206,100C137.1,100,69,100,34,100L0,100Z"/></svg>